<svg width="350" height="110" viewBox="0 0 350 110" fill="none" xmlns="http://www.w3.org/2000/svg">
<path d="M133.449 62.29C133.449 59.7095 133.009 57.3636 132.129 55.2522C131.249 53.0823 130.047 51.2349 128.522 49.71C126.997 48.1852 125.209 47.0123 123.156 46.1912C121.103 45.3115 118.904 44.8716 116.558 44.8716C113.743 44.8716 111.28 45.4288 109.168 46.5431C107.116 47.5987 105.386 48.977 103.978 50.6777C102.571 52.3785 101.515 54.2552 100.811 56.3079C100.166 58.3606 99.8435 60.3546 99.8435 62.29C99.8435 64.5186 100.254 66.6592 101.075 68.7119C101.896 70.7645 103.04 72.5826 104.506 74.1661C105.972 75.7496 107.732 77.0398 109.784 78.0368C111.837 78.9752 114.066 79.4444 116.47 79.4444C118.875 79.4444 121.103 79.0045 123.156 78.1248C125.209 77.1865 126.997 75.9549 128.522 74.43C130.047 72.8465 131.249 71.0285 132.129 68.9758C133.009 66.8645 133.449 64.6359 133.449 62.29ZM133.273 86.5701V79.0045H133.097C131.337 81.9956 128.962 84.2242 125.971 85.6904C123.039 87.0979 119.901 87.8017 116.558 87.8017C112.453 87.8017 108.787 87.0979 105.562 85.6904C102.336 84.2242 99.6089 82.3181 97.3803 79.9722C95.2103 77.5677 93.5389 74.8405 92.3659 71.7909C91.2516 68.7412 90.6945 65.6035 90.6945 62.3779C90.6945 59.3869 91.2223 56.3666 92.278 53.3169C93.3336 50.2672 94.9171 47.5108 97.0284 45.0476C99.1984 42.5257 101.896 40.473 105.122 38.8896C108.347 37.3061 112.159 36.5143 116.558 36.5143C119.96 36.5143 123.127 37.2181 126.059 38.6257C128.991 39.9745 131.337 41.9979 133.097 44.6957H133.273V37.8339H142.422V86.5701H133.273ZM159.872 32.2037H150.723V21.4712H159.872V32.2037ZM159.872 86.5701H150.723V37.8339H159.872V86.5701ZM168.43 86.5701V46.1912H164.119V37.8339H168.43V35.4587C168.43 32.8195 168.928 30.5909 169.925 28.7729C170.922 26.9548 172.359 25.4006 174.236 24.1104C175.233 23.5239 176.142 23.0547 176.963 22.7028C177.843 22.3509 178.722 22.087 179.602 21.9111C180.54 21.7351 181.508 21.6178 182.505 21.5592C183.561 21.5006 184.763 21.4712 186.112 21.4712V29.8285C183.062 29.8285 180.863 30.3563 179.514 31.412C178.224 32.409 177.579 33.7579 177.579 35.4587V37.8339H186.112V46.1912H177.579V86.5701H168.43ZM227.53 62.29C227.53 59.7095 227.09 57.3636 226.21 55.2522C225.331 53.0823 224.128 51.2349 222.603 49.71C221.079 48.1852 219.29 47.0123 217.237 46.1912C215.185 45.3115 212.985 44.8716 210.639 44.8716C207.824 44.8716 205.361 45.4288 203.25 46.5431C201.197 47.5987 199.467 48.977 198.059 50.6777C196.652 52.3785 195.596 54.2552 194.892 56.3079C194.247 58.3606 193.925 60.3546 193.925 62.29C193.925 64.5186 194.335 66.6592 195.156 68.7119C195.977 70.7645 197.121 72.5826 198.587 74.1661C200.053 75.7496 201.813 77.0398 203.866 78.0368C205.918 78.9752 208.147 79.4444 210.551 79.4444C212.956 79.4444 215.185 79.0045 217.237 78.1248C219.29 77.1865 221.079 75.9549 222.603 74.43C224.128 72.8465 225.331 71.0285 226.21 68.9758C227.09 66.8645 227.53 64.6359 227.53 62.29ZM227.354 86.5701V79.0045H227.178C225.419 81.9956 223.043 84.2242 220.052 85.6904C217.12 87.0979 213.982 87.8017 210.639 87.8017C206.534 87.8017 202.869 87.0979 199.643 85.6904C196.417 84.2242 193.69 82.3181 191.462 79.9722C189.292 77.5677 187.62 74.8405 186.447 71.7909C185.333 68.7412 184.776 65.6035 184.776 62.3779C184.776 59.3869 185.304 56.3666 186.359 53.3169C187.415 50.2672 188.998 47.5108 191.11 45.0476C193.28 42.5257 195.977 40.473 199.203 38.8896C202.429 37.3061 206.241 36.5143 210.639 36.5143C214.041 36.5143 217.208 37.2181 220.14 38.6257C223.073 39.9745 225.419 41.9979 227.178 44.6957H227.354V37.8339H236.503V86.5701H227.354ZM278.849 86.5701V60.0907C278.849 59.1523 278.79 57.8327 278.673 56.132C278.556 54.4312 278.116 52.7597 277.353 51.1176C276.591 49.4168 275.389 47.9506 273.746 46.719C272.104 45.4874 269.758 44.8716 266.709 44.8716C262.838 44.8716 259.73 46.1619 257.384 48.7424C255.038 51.3229 253.865 55.0763 253.865 60.0027V86.5701H244.716V37.8339H253.249V43.0242H253.425C254.657 41.3821 256.006 40.1212 257.472 39.2414C258.938 38.3617 260.345 37.7166 261.694 37.3061C263.043 36.8955 264.246 36.661 265.301 36.6023C266.416 36.5437 267.207 36.5143 267.676 36.5143C271.489 36.5143 274.861 37.2768 277.793 38.8016C280.784 40.3264 283.159 42.4671 284.919 45.2235C285.916 46.807 286.649 48.5957 287.118 50.5898C287.646 52.5838 287.939 54.959 287.998 57.7154V86.5701H278.849ZM337.088 62.026C337.088 59.8561 336.677 57.7448 335.856 55.6921C335.035 53.6394 333.862 51.8214 332.337 50.2379C330.871 48.5957 329.083 47.3055 326.971 46.3671C324.86 45.3701 322.514 44.8716 319.934 44.8716C317.353 44.8716 315.007 45.3701 312.896 46.3671C310.784 47.3055 308.966 48.5957 307.442 50.2379C305.975 51.8214 304.832 53.6688 304.011 55.7801C303.19 57.8327 302.779 59.9441 302.779 62.114C302.779 64.3426 303.19 66.4833 304.011 68.5359C304.832 70.5886 306.005 72.436 307.53 74.0781C309.054 75.7203 310.843 77.0398 312.896 78.0368C315.007 78.9752 317.353 79.4444 319.934 79.4444C322.397 79.4444 324.655 78.9752 326.707 78.0368C328.819 77.0985 330.637 75.8376 332.162 74.2541C333.745 72.6119 334.947 70.7352 335.768 68.6239C336.648 66.5126 337.088 64.3133 337.088 62.026ZM346.237 62.026C346.237 65.0171 345.621 68.0374 344.39 71.0871C343.217 74.1368 341.516 76.8932 339.287 79.3564C337.059 81.8196 334.302 83.843 331.018 85.4264C327.734 87.0099 324.039 87.8017 319.934 87.8017C315.828 87.8017 312.133 87.0392 308.849 85.5144C305.624 83.9309 302.867 81.9076 300.58 79.4444C298.351 76.9812 296.621 74.2247 295.389 71.1751C294.217 68.0667 293.63 64.9584 293.63 61.8501C293.63 58.5072 294.275 55.3109 295.565 52.2612C296.914 49.2115 298.762 46.5431 301.108 44.2558C303.454 41.9099 306.21 40.0332 309.377 38.6257C312.603 37.2181 316.121 36.5143 319.934 36.5143C323.628 36.5143 327.059 37.1888 330.226 38.5377C333.452 39.8866 336.238 41.734 338.583 44.0799C340.988 46.3671 342.865 49.0649 344.214 52.1732C345.563 55.2816 346.237 58.5658 346.237 62.026Z" fill="white"/>
<path d="M37.0312 36.3252L8.84067 85.0507C5.04217 91.6161 9.28009 98.8925 16.2848 95.9824C22.3346 93.469 27.6517 89.7909 29.6073 86.8986L43.4419 61.5787C45.4631 57.8795 50.777 57.8833 52.7929 61.5854C54.5269 64.7698 52.6411 68.7184 49.0744 69.3712L43.9527 70.3086C41.4517 70.7664 39.3018 72.3523 38.1261 74.6067C35.2634 80.0962 39.2461 86.6648 45.4372 86.6648L64.7459 86.6648C72.7943 86.6648 78.015 78.1778 74.3853 70.9943L57.1512 36.8857C55.3487 33.3183 51.7234 31.0381 47.7273 30.9584L46.5948 30.9358C42.6635 30.8573 39.0003 32.9217 37.0312 36.3252Z" fill="white"/>
</svg>
