<svg width="350" height="110" viewBox="0 0 350 110" fill="none" xmlns="http://www.w3.org/2000/svg">
<path d="M133.449 61.7199C133.449 59.1394 133.009 56.7935 132.129 54.6822C131.249 52.5122 130.047 50.6648 128.522 49.14C126.997 47.6151 125.209 46.4422 123.156 45.6211C121.103 44.7414 118.904 44.3016 116.558 44.3016C113.743 44.3016 111.28 44.8587 109.168 45.973C107.116 47.0287 105.386 48.4069 103.978 50.1077C102.571 51.8084 101.515 53.6852 100.811 55.7378C100.166 57.7905 99.8435 59.7845 99.8435 61.7199C99.8435 63.9485 100.254 66.0891 101.075 68.1418C101.896 70.1945 103.04 72.0125 104.506 73.596C105.972 75.1795 107.732 76.4698 109.784 77.4668C111.837 78.4051 114.066 78.8743 116.47 78.8743C118.875 78.8743 121.103 78.4345 123.156 77.5547C125.209 76.6164 126.997 75.3848 128.522 73.8599C130.047 72.2765 131.249 70.4584 132.129 68.4057C133.009 66.2944 133.449 64.0658 133.449 61.7199ZM133.273 86V78.4345H133.097C131.337 81.4255 128.962 83.6541 125.971 85.1203C123.039 86.5278 119.901 87.2316 116.558 87.2316C112.453 87.2316 108.787 86.5278 105.562 85.1203C102.336 83.6541 99.6089 81.748 97.3803 79.4021C95.2103 76.9976 93.5389 74.2705 92.3659 71.2208C91.2516 68.1711 90.6945 65.0335 90.6945 61.8079C90.6945 58.8168 91.2223 55.7965 92.278 52.7468C93.3336 49.6971 94.9171 46.9407 97.0284 44.4775C99.1984 41.9556 101.896 39.903 105.122 38.3195C108.347 36.736 112.159 35.9443 116.558 35.9443C119.96 35.9443 123.127 36.648 126.059 38.0556C128.991 39.4045 131.337 41.4278 133.097 44.1256H133.273V37.2638H142.422V86H133.273ZM159.872 31.6337H150.723V20.9012H159.872V31.6337ZM159.872 86H150.723V37.2638H159.872V86ZM168.43 86V45.6211H164.119V37.2638H168.43V34.8886C168.43 32.2495 168.928 30.0209 169.925 28.2028C170.922 26.3847 172.359 24.8305 174.236 23.5403C175.233 22.9538 176.142 22.4846 176.963 22.1328C177.843 21.7809 178.722 21.517 179.602 21.341C180.54 21.1651 181.508 21.0478 182.505 20.9891C183.561 20.9305 184.763 20.9012 186.112 20.9012V29.2584C183.062 29.2584 180.863 29.7863 179.514 30.8419C178.224 31.8389 177.579 33.1878 177.579 34.8886V37.2638H186.112V45.6211H177.579V86H168.43ZM227.53 61.7199C227.53 59.1394 227.09 56.7935 226.21 54.6822C225.331 52.5122 224.128 50.6648 222.603 49.14C221.079 47.6151 219.29 46.4422 217.237 45.6211C215.185 44.7414 212.985 44.3016 210.639 44.3016C207.824 44.3016 205.361 44.8587 203.25 45.973C201.197 47.0287 199.467 48.4069 198.059 50.1077C196.652 51.8084 195.596 53.6852 194.892 55.7378C194.247 57.7905 193.925 59.7845 193.925 61.7199C193.925 63.9485 194.335 66.0891 195.156 68.1418C195.977 70.1945 197.121 72.0125 198.587 73.596C200.053 75.1795 201.813 76.4698 203.866 77.4668C205.918 78.4051 208.147 78.8743 210.551 78.8743C212.956 78.8743 215.185 78.4345 217.237 77.5547C219.29 76.6164 221.079 75.3848 222.603 73.8599C224.128 72.2765 225.331 70.4584 226.21 68.4057C227.09 66.2944 227.53 64.0658 227.53 61.7199ZM227.354 86V78.4345H227.178C225.419 81.4255 223.043 83.6541 220.052 85.1203C217.12 86.5278 213.982 87.2316 210.639 87.2316C206.534 87.2316 202.869 86.5278 199.643 85.1203C196.417 83.6541 193.69 81.748 191.462 79.4021C189.292 76.9976 187.62 74.2705 186.447 71.2208C185.333 68.1711 184.776 65.0335 184.776 61.8079C184.776 58.8168 185.304 55.7965 186.359 52.7468C187.415 49.6971 188.998 46.9407 191.11 44.4775C193.28 41.9556 195.977 39.903 199.203 38.3195C202.429 36.736 206.241 35.9443 210.639 35.9443C214.041 35.9443 217.208 36.648 220.14 38.0556C223.073 39.4045 225.419 41.4278 227.178 44.1256H227.354V37.2638H236.503V86H227.354ZM278.849 86V59.5206C278.849 58.5822 278.79 57.2627 278.673 55.5619C278.556 53.8611 278.116 52.1897 277.353 50.5475C276.591 48.8467 275.389 47.3806 273.746 46.149C272.104 44.9174 269.758 44.3016 266.709 44.3016C262.838 44.3016 259.73 45.5918 257.384 48.1723C255.038 50.7528 253.865 54.5062 253.865 59.4326V86H244.716V37.2638H253.249V42.4542H253.425C254.657 40.812 256.006 39.5511 257.472 38.6714C258.938 37.7917 260.345 37.1465 261.694 36.736C263.043 36.3255 264.246 36.0909 265.301 36.0322C266.416 35.9736 267.207 35.9443 267.676 35.9443C271.489 35.9443 274.861 36.7067 277.793 38.2315C280.784 39.7564 283.159 41.897 284.919 44.6534C285.916 46.2369 286.649 48.0257 287.118 50.0197C287.646 52.0137 287.939 54.3889 287.998 57.1454V86H278.849ZM337.088 61.456C337.088 59.286 336.677 57.1747 335.856 55.122C335.035 53.0694 333.862 51.2513 332.337 49.6678C330.871 48.0257 329.083 46.7354 326.971 45.7971C324.86 44.8001 322.514 44.3016 319.934 44.3016C317.353 44.3016 315.007 44.8001 312.896 45.7971C310.784 46.7354 308.966 48.0257 307.442 49.6678C305.975 51.2513 304.832 53.0987 304.011 55.21C303.19 57.2627 302.779 59.374 302.779 61.5439C302.779 63.7726 303.19 65.9132 304.011 67.9659C304.832 70.0185 306.005 71.8659 307.53 73.5081C309.054 75.1502 310.843 76.4698 312.896 77.4668C315.007 78.4051 317.353 78.8743 319.934 78.8743C322.397 78.8743 324.655 78.4051 326.707 77.4668C328.819 76.5284 330.637 75.2675 332.162 73.684C333.745 72.0419 334.947 70.1651 335.768 68.0538C336.648 65.9425 337.088 63.7432 337.088 61.456ZM346.237 61.456C346.237 64.447 345.621 67.4674 344.39 70.517C343.217 73.5667 341.516 76.3231 339.287 78.7863C337.059 81.2495 334.302 83.2729 331.018 84.8564C327.734 86.4399 324.039 87.2316 319.934 87.2316C315.828 87.2316 312.133 86.4692 308.849 84.9443C305.624 83.3609 302.867 81.3375 300.58 78.8743C298.351 76.4111 296.621 73.6547 295.389 70.605C294.217 67.4967 293.63 64.3884 293.63 61.28C293.63 57.9371 294.275 54.7408 295.565 51.6912C296.914 48.6415 298.762 45.973 301.108 43.6858C303.454 41.3398 306.21 39.4631 309.377 38.0556C312.603 36.648 316.121 35.9443 319.934 35.9443C323.628 35.9443 327.059 36.6187 330.226 37.9676C333.452 39.3165 336.238 41.1639 338.583 43.5098C340.988 45.7971 342.865 48.4949 344.214 51.6032C345.563 54.7115 346.237 57.9958 346.237 61.456Z" fill="black"/>
<path d="M37.0312 36.8352L8.84067 85.5607C5.04217 92.1261 9.28009 99.4025 16.2848 96.4924C22.3346 93.979 27.6517 90.3009 29.6073 87.4086L43.4419 62.0887C45.4631 58.3895 50.777 58.3933 52.7929 62.0954C54.5269 65.2798 52.6411 69.2284 49.0744 69.8812L43.9527 70.8186C41.4517 71.2764 39.3018 72.8623 38.1261 75.1167C35.2634 80.6062 39.2461 87.1748 45.4372 87.1748L64.7459 87.1748C72.7943 87.1748 78.015 78.6878 74.3853 71.5043L57.1512 37.3957C55.3487 33.8283 51.7234 31.5481 47.7273 31.4684L46.5948 31.4458C42.6635 31.3673 39.0003 33.4317 37.0312 36.8352Z" fill="url(#paint0_linear_5356_1120)"/>
<defs>
<linearGradient id="paint0_linear_5356_1120" x1="42.9547" y1="31.3732" x2="41.5824" y2="100.15" gradientUnits="userSpaceOnUse">
<stop stop-color="#7E20C8"/>
<stop offset="1" stop-color="#BB64FF"/>
</linearGradient>
</defs>
</svg>
