<?xml version="1.0" standalone="no"?>
<!DOCTYPE svg PUBLIC "-//W3C//DTD SVG 20010904//EN"
 "http://www.w3.org/TR/2001/REC-SVG-20010904/DTD/svg10.dtd">
<svg version="1.0" xmlns="http://www.w3.org/2000/svg"
 width="48.000000pt" height="50.000000pt" viewBox="0 0 48.000000 50.000000"
 preserveAspectRatio="xMidYMid meet">

<g transform="translate(0.000000,50.000000) scale(0.100000,-0.100000)"
fill="#800080" stroke="none">
<path d="M235 429 c-11 -6 -57 -77 -103 -159 -84 -150 -96 -191 -59 -198 36
-7 82 36 130 122 35 63 53 86 68 86 24 0 36 -27 22 -48 -5 -9 -22 -19 -38 -24
-47 -12 -56 -37 -25 -68 26 -26 133 -28 168 -4 33 23 28 53 -33 174 -62 124
-82 142 -130 119z"/>
</g>
</svg>
